<svg width="94" height="42" viewBox="0 0 94 42" fill="none" xmlns="http://www.w3.org/2000/svg">
<path d="M40.2071 14.219C38.7577 8.04951 33.9386 3.23355 27.7681 1.78834C23.3118 0.744621 18.6745 0.746176 14.219 1.79288C8.04948 3.24223 3.23353 8.06142 1.78831 14.2319C0.744599 18.6881 0.746153 23.3254 1.79285 27.781C3.2422 33.9505 8.06139 38.7665 14.2319 40.2117C18.6881 41.2554 23.3254 41.2538 27.781 40.2071C33.9505 38.7578 38.7664 33.9386 40.2116 27.7681C41.2554 23.3119 41.2538 18.6746 40.2071 14.219Z" stroke="#707070" stroke-width="1.57242"/>
<path d="M28.7748 20.9967L13.2245 21.0019M13.2245 21.0019L18.7763 15.4463M13.2245 21.0019L18.78 26.5537" stroke="#707070" stroke-width="1.57242" stroke-linecap="round" stroke-linejoin="round"/>
<path d="M53.7929 14.219C55.2423 8.04951 60.0614 3.23355 66.2319 1.78834C70.6882 0.744621 75.3255 0.746176 79.781 1.79288C85.9505 3.24223 90.7665 8.06142 92.2117 14.2319C93.2554 18.6881 93.2538 23.3254 92.2071 27.781C90.7578 33.9505 85.9386 38.7665 79.7681 40.2117C75.3119 41.2554 70.6746 41.2538 66.219 40.2071C60.0495 38.7578 55.2336 33.9386 53.7884 27.7681C52.7446 23.3119 52.7462 18.6746 53.7929 14.219Z" stroke="#1668E8" stroke-width="1.57242"/>
<path d="M65.2252 20.9967L80.7755 21.0019M80.7755 21.0019L75.2237 15.4463M80.7755 21.0019L75.22 26.5537" stroke="#1668E8" stroke-width="1.57242" stroke-linecap="round" stroke-linejoin="round"/>
</svg>
