<svg width="246" height="44" viewBox="0 0 246 44" fill="none" xmlns="http://www.w3.org/2000/svg">
<path d="M127.958 33.8593H119.546V32.3617C119.546 28.5137 119.561 24.6599 119.546 20.8148C119.536 20.0582 119.459 19.3041 119.315 18.5612C119.03 16.9895 118.214 15.8057 116.52 15.5661C114.78 15.3208 113.097 15.8514 112.412 17.4402C111.626 19.2488 111.155 21.1781 111.017 23.1452C110.803 26.6453 110.957 30.1682 110.957 33.808H102.508C102.508 32.8552 102.508 31.9167 102.508 30.9782C102.485 27.1787 102.528 23.3763 102.411 19.5682C102.334 17.0352 101.085 15.5747 99.0996 15.4919C97.4137 15.4263 95.9247 16.0938 95.2344 17.657C94.5919 19.0193 94.2052 20.488 94.0934 21.99C93.9394 25.8751 94.0421 29.7745 94.0421 33.7937H85.6785V9.11376H93.1635V13.1929L93.4487 13.4296C95.417 10.1606 98.3322 8.61457 101.989 8.46338C105.717 8.3122 108.644 9.67568 110.393 13.2242C113.408 8.77429 117.57 7.88715 122.373 8.79139C124.972 9.28203 126.544 10.9393 127.322 13.3554C127.684 14.3871 127.89 15.4666 127.936 16.5588C127.99 22.2809 127.958 27.9831 127.958 33.8593Z" fill="#EFEFEF"/>
<path d="M141.984 44.0001H133.567V9.03112C135.937 9.03112 138.29 9.00257 140.638 9.07673C140.875 9.07673 141.251 9.70999 141.283 10.0723C141.371 11.0963 141.314 12.1347 141.459 13.2557C142.957 10.9052 145.036 9.54744 147.652 8.83431C152.171 7.62199 156.538 9.19369 159.105 13.076C162.599 18.3588 161.938 26.768 158.044 31.1865C154.427 35.297 145.778 36.0358 141.984 30.7501V44.0001ZM152.904 21.5051C152.501 20.1388 152.308 18.7382 151.697 17.5545C149.92 14.0858 145.088 14.0002 143.077 17.3462C141.502 19.9705 141.534 22.6918 142.951 25.3332C143.856 27.0219 145.327 28.0317 147.336 28.0117C149.253 27.9918 150.779 27.1417 151.614 25.4445C152.213 24.2521 152.47 22.8829 152.904 21.5051Z" fill="#EFEFEF"/>
<path d="M29.0105 1.71444L28.3259 8.42919C26.4005 7.8159 24.6177 7.07144 22.7521 6.69491C19.1893 5.97608 15.735 6.30123 12.7969 8.72586C9.37386 11.5498 8.1159 16.7386 9.68193 21.2113C10.3881 23.2232 11.7127 24.9601 13.466 26.1734C15.2193 27.3867 17.3116 28.0142 19.4432 27.9661C21.8279 27.9347 24.2098 27.3442 26.5888 26.9677C27.2786 26.8208 27.9603 26.6379 28.6312 26.42C28.7709 28.5223 28.9392 30.4934 28.9963 32.4673C28.9963 32.7525 28.5484 33.2774 28.2232 33.3602C21.9163 34.9861 15.638 35.1458 9.53931 32.5044C3.66314 29.9714 0.616655 25.3218 0.0889402 19.0434C-0.307559 14.3168 0.573868 9.87257 3.70022 6.09015C6.51565 2.6814 10.2867 1.08119 14.5198 0.3595C19.3862 -0.45917 24.1384 0.174087 29.0105 1.71444Z" fill="#EFEFEF"/>
<path d="M67.4054 34.5841C62.2281 34.3274 58.1661 33.2777 55.1139 29.8204C50.0849 24.1154 50.8551 11.4816 62.3849 8.94855C66.7179 7.99581 71.0052 8.22972 74.9559 10.449C79.7681 13.1532 81.5167 17.5803 81.1174 22.8203C80.6895 28.3114 77.5232 31.8913 72.3573 33.5971C70.5431 34.199 68.5806 34.3616 67.4054 34.5841ZM60.7619 21.1773C61.0671 22.6035 61.2097 23.8814 61.6176 25.0709C62.4334 27.3786 64.3646 28.6281 66.7521 28.5967C67.8522 28.5893 68.9229 28.2414 69.8173 27.6009C70.7116 26.9604 71.3857 26.0587 71.7469 25.0196C72.6678 22.5945 72.6002 19.9047 71.5586 17.5289C70.7029 15.5065 69.0113 14.4225 66.8833 14.3512C64.6641 14.277 62.7358 15.1214 61.8344 17.3378C61.3552 18.5901 61.1298 19.9564 60.7733 21.1887L60.7619 21.1773Z" fill="#EFEFEF"/>
<path d="M201.644 34.6039C195.885 34.3186 191.638 33.2518 188.571 29.4693C183.982 23.8071 184.758 11.8552 195.466 9.13672C200.566 7.84168 205.478 8.19253 209.902 11.2675C213.822 13.9888 215.18 18.0108 214.854 22.5834C214.501 27.5297 212.116 31.2636 207.392 33.0949C205.219 33.9364 202.857 34.2958 201.644 34.6039ZM194.562 21.103C194.847 22.4807 194.958 23.7187 195.329 24.8768C196.091 27.2701 198.033 28.6165 200.463 28.608C201.59 28.6189 202.691 28.2729 203.609 27.6195C204.527 26.9662 205.214 26.039 205.572 24.971C206.389 22.6667 206.365 20.1478 205.504 17.8596C204.682 15.6632 202.962 14.4366 200.626 14.3482C198.344 14.2569 196.427 15.3837 195.546 17.5345C195.069 18.6955 194.864 19.9705 194.562 21.103Z" fill="#EFEFEF"/>
<path d="M227.822 33.848H219.404C219.373 33.3574 219.313 32.8611 219.31 32.3619C219.31 25.0908 219.341 17.8141 219.276 10.5516C219.276 9.24228 219.704 8.93421 220.91 8.98556C222.89 9.07398 224.878 9.01118 227.003 9.01118V13.25C228.375 11.3874 229.984 10.0011 232.072 9.20521C239.144 6.50958 245.003 10.1836 245.741 17.7627C245.778 18.1393 245.776 18.5215 245.776 18.9037C245.776 23.8386 245.776 28.7762 245.776 33.8195H237.332C237.332 33.249 237.332 32.7042 237.332 32.1536C237.258 27.9747 237.304 23.7929 237.047 19.6254C236.896 17.0267 235.538 15.6832 233.53 15.4607C232.431 15.342 231.324 15.6107 230.402 16.2205C229.48 16.8304 228.799 17.743 228.478 18.801C228.082 20.0161 227.867 21.2829 227.839 22.5606C227.771 26.2717 227.822 29.9772 227.822 33.848Z" fill="#EFEFEF"/>
<path d="M163.561 14.8818C163.561 13.0277 163.509 11.4189 163.609 9.81863C163.629 9.53337 164.254 9.07699 164.625 9.04846C165.891 8.95148 167.166 9.01134 168.618 9.01134C168.618 7.46243 168.675 6.05049 168.595 4.64706C168.544 3.71714 168.881 3.31778 169.762 3.06676C172.115 2.39071 174.44 1.61194 176.97 0.813232V8.95431H182.961V14.8818C181.48 14.8818 179.98 14.9332 178.488 14.8647C177.418 14.8162 176.962 15.0872 177.002 16.291C177.096 19.0408 177.002 21.7992 177.059 24.5632C177.116 28.2572 178.502 29.384 182.193 28.8135C182.421 28.7764 182.652 28.7564 183.132 28.6965V34.0764C179.777 34.6469 176.24 35.0262 172.797 33.7711C169.756 32.6615 168.729 30.0629 168.635 27.0877C168.524 23.5307 168.55 19.9565 168.612 16.4022C168.635 15.1871 168.205 14.8077 167.052 14.8875C165.96 14.9417 164.87 14.8818 163.561 14.8818Z" fill="#EFEFEF"/>
<path d="M41.3476 33.8596C40.8171 33.8938 40.4919 33.9338 40.1695 33.9338C37.802 33.9338 35.4315 33.9338 32.9613 33.9338V9.03421C35.2975 9.03421 37.6536 9.00852 40.0041 9.08268C40.2209 9.08268 40.5603 9.75021 40.5917 10.1267C40.6744 11.1337 40.6202 12.152 40.78 13.2474C43.0392 9.09412 46.4137 7.75342 51.0176 8.806C50.8864 11.0652 50.7552 13.3101 50.6183 15.6692C49.985 15.6264 49.4773 15.6178 48.9667 15.5522C44.9732 15.0416 41.9695 17.1781 41.5901 21.2001C41.2706 24.5889 41.4075 28.0205 41.3476 31.435C41.3362 32.1937 41.3476 32.9497 41.3476 33.8596Z" fill="#EFEFEF"/>
</svg>
