<svg width="262" height="40" viewBox="0 0 262 40" fill="none" xmlns="http://www.w3.org/2000/svg">
<path d="M164.022 25.4809C164.022 27.9362 164.033 30.3916 164.022 32.845C163.997 37.215 162.058 39.3663 157.701 39.7905C153.896 40.1659 150.159 39.9782 146.648 38.2306C146.307 38.0597 145.986 37.9321 145.593 38.1724C141.623 40.5995 137.349 40.0627 133.08 39.3944C131.829 39.169 130.59 38.8751 129.371 38.514C127.999 38.1386 127.43 37.2282 127.447 35.7827C127.496 31.3451 127.423 26.9057 127.492 22.4699C127.511 21.3192 127.147 21.062 126.065 21.0883C123.045 21.1578 120.021 21.139 117.001 21.0883C116.133 21.0771 115.758 21.2366 115.778 22.2278C115.844 25.3889 115.778 28.5538 115.81 31.7168C115.824 33.4926 116.481 34.1815 118.285 34.2829C119.079 34.3279 119.88 34.2097 120.68 34.1665C121.01 34.1478 121.463 33.9788 121.648 34.1402C122.818 35.1126 122.45 36.6162 122.812 37.8739C123.013 38.5722 122.437 38.8332 121.832 39.0002C119.017 39.7699 116.148 39.9726 113.288 39.4C109.873 38.7149 108.18 36.5261 108.116 32.8037C108.056 29.3585 108.056 25.912 108.116 22.4643C108.138 21.3568 107.836 21.002 106.704 21.0376C104.159 21.1202 101.604 21.124 99.0567 21.0376C97.8159 20.9963 97.3673 21.276 97.3861 22.6407C97.4762 27.6903 97.3861 32.7436 97.4461 37.7951C97.4593 38.9551 97.1495 39.3888 95.9444 39.3156C94.3415 39.218 92.7342 39.218 91.1314 39.3156C89.9075 39.3925 89.6296 38.9157 89.6447 37.7763C89.6972 32.7249 89.6278 27.6734 89.6953 22.622C89.7122 21.4093 89.4494 20.9945 88.1561 21.0283C85.3403 21.1034 85.6181 21.4788 85.6069 18.4847C85.5956 15.7159 85.6069 15.669 88.3532 15.7027C89.4325 15.7196 89.7761 15.3874 89.686 14.338C89.6309 13.443 89.6435 12.545 89.7235 11.6518C89.96 8.19033 91.9066 6.04662 95.3099 5.55856C97.906 5.18313 100.48 5.43842 103.046 5.93399C104.093 6.13673 104.378 6.66984 104.172 7.62344C104.157 7.7167 104.146 7.81068 104.14 7.90501C103.765 10.9742 103.765 10.9742 100.69 10.7395C98.0299 10.5349 96.3724 12.8927 97.4499 15.3048C97.6376 15.7178 97.9586 15.6709 98.2721 15.6709C101.247 15.6802 104.223 15.6709 107.196 15.6859C107.879 15.6859 108.103 15.4212 108.092 14.7642C108.063 13.2061 108.107 11.6481 108.075 10.0901C108.056 9.174 108.409 8.71597 109.349 8.58833C111.029 8.35368 112.706 8.06269 114.367 7.71542C115.478 7.48265 115.82 7.90316 115.795 8.95812C115.756 10.6476 115.859 12.3614 115.76 14.0565C115.687 15.301 115.998 15.7459 117.353 15.7178C122.735 15.6314 128.119 15.7328 133.497 15.6502C134.974 15.6277 135.333 16.1326 135.316 17.5273C135.247 22.8604 135.316 28.1971 135.263 33.532C135.254 34.5739 135.59 34.9868 136.596 35.0075C137.253 35.0206 137.91 35.1633 138.565 35.2121C140.743 35.3698 141.8 34.4913 141.841 32.3288C141.907 28.8823 141.884 25.4358 141.895 21.9894C141.895 20.3375 141.954 18.6818 141.875 17.0337C141.822 15.943 142.25 15.6333 143.277 15.6709C144.927 15.729 146.585 15.7459 148.233 15.6709C149.387 15.6164 149.673 16.0951 149.665 17.1613C149.627 22.5431 149.688 27.9268 149.618 33.3049C149.603 34.5401 150.016 35.03 151.193 35.0413C151.662 35.0413 152.132 35.1914 152.597 35.2177C154.996 35.3491 156.243 34.1928 156.248 31.7975C156.261 26.9357 156.284 22.072 156.231 17.2101C156.218 16.0463 156.564 15.607 157.754 15.669C159.402 15.7534 161.059 15.7309 162.709 15.669C163.691 15.6352 164.038 15.9881 164.023 16.983C163.99 19.8137 164.022 22.6483 164.022 25.4809Z" fill="white"/>
<path d="M225.865 30.6165C223.788 30.6165 221.71 30.6447 219.634 30.6034C218.773 30.5865 218.57 30.9131 218.731 31.7053C219.058 33.3008 220.13 34.3577 221.896 34.72C224.594 35.27 227.246 34.9828 229.874 34.2788C231.676 33.7964 231.795 33.8659 232.209 35.5928C232.848 38.2509 232.848 38.2453 230.158 39.0056C226.362 40.0793 222.512 40.1732 218.662 39.473C214.003 38.6245 211.493 35.835 210.832 30.7179C210.45 27.951 210.549 25.1386 211.127 22.4058C212.049 18.2066 214.318 16.0798 218.596 15.4171C221.705 14.9347 224.791 14.9704 227.836 15.8921C230.668 16.7462 232.376 18.6065 233.092 21.456C233.747 24.0502 233.728 26.6876 233.715 29.3401C233.715 30.35 233.101 30.6184 232.236 30.6165H225.853H225.865ZM222.427 26.2164C223.417 26.2164 224.406 26.2164 225.395 26.2164C225.752 26.2164 226.24 26.3065 226.24 25.7434C226.24 24.1065 226.488 22.3476 225.206 21.0599C223.924 19.7722 222.244 19.9505 220.674 20.3597C219.075 20.7746 218.106 23.1586 218.668 25.5745C218.989 26.9561 220.325 25.9405 221.162 26.2014C221.549 26.3159 222.003 26.2183 222.427 26.2164Z" fill="white"/>
<path d="M59.9799 27.6114C59.9608 26.255 60.043 24.8991 60.2258 23.5549C60.8246 18.8169 63.34 16.172 68.0536 15.4211C70.9688 14.9556 73.8728 14.9744 76.7542 15.7158C80.1331 16.5869 82.2261 18.7193 82.9582 22.147C83.6833 25.5232 83.7216 29.0107 83.0708 32.4019C82.2674 36.6499 79.9379 38.8125 75.6035 39.5708C72.9509 40.0432 70.2347 40.0317 67.5861 39.537C63.248 38.7223 60.8284 36.1225 60.2483 31.7318C60.0472 30.3679 59.9574 28.9899 59.9799 27.6114ZM67.9128 27.4068C67.8978 29.0118 67.8677 30.6186 68.185 32.203C68.5604 34.1027 69.5966 34.8648 71.7516 34.8573C73.9065 34.8497 74.969 34.0914 75.2656 32.156C75.7415 29.072 75.7415 25.9331 75.2656 22.8491C74.9746 20.9719 73.9385 20.2398 71.8548 20.221C69.5872 20.2023 68.6317 20.8593 68.2169 22.7552C67.8733 24.2888 67.8996 25.8488 67.9128 27.4068Z" fill="white"/>
<path d="M189.759 28.4862C189.759 30.6562 189.78 32.828 189.759 34.998C189.739 37.168 188.905 38.3488 186.812 38.9401C182.337 40.1908 177.625 40.3371 173.081 39.3662C168.168 38.3394 165.897 32.6722 168.431 28.306C169.505 26.457 171.271 25.7436 173.216 25.3851C175.626 24.9421 178.061 24.6342 180.471 24.1912C181.057 24.0842 182.044 24.4108 182.057 23.2658C182.07 22.1207 182.174 20.8987 180.719 20.4932C178.956 20.0014 177.152 20.1534 175.382 20.4012C173.892 20.6115 172.424 20.9813 170.958 21.3398C170.271 21.505 169.863 21.3736 169.745 20.6377C169.7 20.358 169.644 20.0746 169.58 19.8043C168.9 16.8402 168.893 16.8008 171.891 16.1156C175.833 15.2015 179.793 14.7622 183.816 15.4605C187.946 16.1757 189.765 18.3551 189.765 22.5487C189.764 24.5247 189.762 26.5039 189.759 28.4862ZM182.063 31.6867C182.063 30.7932 182.063 29.9015 182.063 29.008C182.063 28.5049 181.96 28.2102 181.335 28.3303C179.861 28.6175 178.371 28.8146 176.899 29.1169C175.96 29.3046 175.275 29.9297 175.102 30.8926C174.868 32.2067 174.765 33.6014 176.015 34.5025C177.745 35.747 179.758 35.5067 181.569 34.906C182.696 34.5306 181.838 33.1472 182.057 32.248C182.081 32.0617 182.082 31.8733 182.061 31.6867H182.063Z" fill="white"/>
<path d="M47.9736 15.1265C50.1882 15.1449 52.3931 15.4215 54.5436 15.9506C55.5554 16.1965 55.8032 16.6714 55.5967 17.67C54.9867 20.6359 55.0148 20.6735 52.0189 20.2117C50.7644 19.9921 49.4876 19.9291 48.2176 20.024C47.0388 20.1385 45.935 20.5177 45.8336 21.965C45.7379 23.341 46.5845 24.0149 47.8103 24.3152C49.2707 24.6719 50.7555 24.944 52.1972 25.3645C54.6919 26.0891 55.9797 27.8686 56.3119 30.3916C57.044 35.9498 54.3447 39.2724 48.6156 39.7886C45.3474 40.0833 42.1281 39.6722 38.9463 38.8895C37.9289 38.6379 37.6323 38.1724 37.82 37.0837C38.3475 33.8925 38.2912 33.8925 41.3866 34.5157C42.9128 34.8235 44.4483 35.0939 46.0138 34.9737C47.6732 34.8461 48.5574 34.0595 48.6193 32.7361C48.6813 31.4127 48.0956 30.7426 46.3818 30.3315C45.1447 30.0368 43.8757 29.851 42.6631 29.4812C39.5639 28.5426 38.1297 26.4908 38.0228 23.0181C37.912 19.4421 39.3255 17.105 42.2914 15.9543C44.1104 15.241 46.0345 15.1283 47.9736 15.1265Z" fill="white"/>
<path d="M0.0364852 17.8782C-0.0592501 15.1545 0.0364886 11.8957 1.40682 8.84532C4.04423 2.97356 8.72774 0.210378 15.0575 0.0226621C16.4729 -0.0186355 17.892 0.048968 19.3074 0.00203894C20.109 -0.0261185 20.4074 0.232906 20.3098 1.05698C20.007 3.58489 19.7329 6.11718 19.4876 8.65385C19.4332 9.19822 19.2098 9.38408 18.6917 9.37281C17.7944 9.35404 16.8972 9.37281 15.9999 9.37281C11.7368 9.4066 9.56496 11.5447 9.49926 15.8302C9.45984 18.2856 9.45232 20.7428 9.50864 23.1962C9.53117 24.1498 9.29652 24.5346 8.26221 24.5102C5.95142 24.437 3.635 24.4464 1.31671 24.5102C0.353727 24.5365 -0.0367228 24.2812 0.00269763 23.26C0.0909242 21.6419 0.0364852 20.0332 0.0364852 17.8782Z" fill="white"/>
<path d="M25.4026 21.4358C25.5396 24.3454 25.3331 27.7618 23.8089 30.9623C21.3686 36.0757 17.2538 38.8708 11.6937 39.5016C9.78273 39.7174 7.8286 39.5429 5.89701 39.6029C5.09358 39.6292 4.95842 39.2932 5.03914 38.5892C5.3301 36.1489 5.61543 33.7236 5.82943 31.2833C5.89513 30.5437 6.17482 30.2903 6.87501 30.3279C7.48508 30.3617 8.10079 30.3279 8.71275 30.3279C13.6591 30.2979 15.9436 28.019 15.998 23.037C16.0224 20.9627 16.0374 18.8866 15.9867 16.8123C15.9661 15.977 16.1745 15.6485 17.0811 15.671C19.5327 15.7311 21.9862 15.7123 24.4377 15.671C25.1567 15.671 25.4458 15.8587 25.4176 16.6227C25.3613 18.0381 25.4026 19.4554 25.4026 21.4358Z" fill="white"/>
<path d="M195.432 28.3812C195.432 25.3627 195.488 22.3424 195.408 19.3258C195.366 17.856 195.958 17.0056 197.306 16.587C200.808 15.502 204.416 15.2148 208.058 15.1772C208.809 15.1772 209.175 15.5715 209.242 16.2904C209.252 16.3843 209.259 16.4782 209.267 16.572C209.61 20.6379 209.61 20.6379 205.544 20.8407C205.451 20.8407 205.357 20.8538 205.263 20.8594C203.132 20.9983 203.132 20.9983 203.132 23.112C203.132 28.017 203.095 32.9221 203.159 37.8271C203.175 39.0266 202.783 39.3795 201.632 39.3176C199.986 39.2293 198.329 39.2425 196.68 39.3176C195.659 39.3607 195.398 38.9665 195.413 38.0035C195.457 34.7955 195.432 31.5874 195.432 28.3812Z" fill="white"/>
<path d="M261.611 22.7723C261.611 25.787 261.568 25.8339 258.582 25.9728C253.609 26.2056 251.901 24.3472 252.575 19.429C252.903 16.9887 253.926 15.975 256.37 15.5958C257.895 15.3593 259.374 15.6109 260.857 15.93C261.581 16.0858 261.587 16.4931 261.497 17.0751C261.394 17.749 260.958 17.5706 260.541 17.5125C259.415 17.351 258.3 17.2196 257.163 17.366C256.091 17.5031 255.473 18.0849 255.207 19.1174C255.013 19.8976 254.95 20.7044 255.019 21.5052C255.177 23.7352 256.096 24.5086 258.328 24.366C258.848 24.3322 259.357 24.2834 259.211 23.6151C259.081 23.0313 259.774 22.0927 258.593 21.9257C257.951 21.8299 257.393 21.7867 257.478 20.8726C257.577 19.78 258.385 20.3939 258.861 20.2212C258.908 20.2136 258.956 20.2136 259.002 20.2212C261.611 20.2005 261.611 20.2006 261.611 22.7723Z" fill="white"/>
<path d="M249.446 25.8675C248.304 26.1922 248.013 25.3569 247.963 24.5535C247.826 22.3891 246.258 23.0179 244.997 22.8509C243.626 22.6631 243.328 23.4403 243.089 24.4971C242.789 25.8112 241.929 26.2448 240.636 25.8975C240.152 25.768 240.182 25.522 240.296 25.1748C241.287 22.2333 242.292 19.2955 243.262 16.3521C243.431 15.8359 243.748 15.7702 244.21 15.7345C247.52 15.4773 247.518 15.4699 248.528 18.6742C249.155 20.6452 249.733 22.635 250.442 24.576C250.85 25.6553 250.66 26.0796 249.446 25.8675ZM245.438 21.2778C246.958 21.2778 247.02 21.2609 246.881 20.6433C246.664 19.6878 246.361 18.753 246.078 17.8144C245.993 17.5366 245.824 17.302 245.485 17.3226C245.145 17.3433 245.047 17.5948 244.97 17.8858C244.827 18.524 244.639 19.1513 244.407 19.7629C243.863 21.0601 244.298 21.4861 245.438 21.2778Z" fill="white"/>
</svg>
