<svg width="272" height="40" viewBox="0 0 272 40" fill="none" xmlns="http://www.w3.org/2000/svg">
<path d="M23.4478 0.00885771C23.4168 0.610594 23.9257 0.404827 24.2044 0.480045C31.7682 2.47108 36.7966 7.16772 38.9182 14.685C42.0751 25.8813 34.9361 37.2877 23.5098 39.5398C23.2288 39.5951 22.9125 39.5399 22.6868 39.7766C22.6625 39.8032 22.6226 39.8584 22.6293 39.8651C22.6778 39.9135 22.7295 39.9586 22.7841 40H17.0322C17.059 39.9758 17.0841 39.95 17.1075 39.9226C17.1252 39.8978 17.14 39.8711 17.1517 39.8429C16.9636 39.7414 16.7657 39.6592 16.561 39.5974C7.93318 37.8276 2.58171 32.6397 0.411478 24.1336C0.362808 23.9433 0.511034 23.4855 0 23.6514V16.1297C0.0243349 16.1562 0.0442605 16.1872 0.0708077 16.2115C0.0973548 16.2359 0.132741 16.2668 0.143803 16.2602C0.365029 16.1318 0.365036 15.9062 0.426979 15.6938C2.47406 7.55119 7.57334 2.45706 15.7248 0.411451C15.8907 0.369418 16.3885 0.515458 16.1473 0L23.4478 0.00885771ZM27.744 26.7087C28.2599 26.6778 28.7773 26.6816 29.2926 26.7198C30.266 26.8525 30.3656 26.3768 30.2859 25.5716C30.0315 23.0208 28.7374 21.1846 26.5384 19.948C25.0208 19.0963 23.3814 18.5609 21.7045 18.1273C19.8551 17.6517 17.9769 17.2734 16.2535 16.4018C15.1695 15.8553 14.3642 15.1098 14.3554 13.8001C14.3554 13.3576 14.1585 13.2228 13.7559 13.225C12.5037 13.225 11.2516 13.2471 9.99503 13.225C9.44639 13.2139 9.31808 13.4616 9.33135 13.9572C9.35347 16.3331 10.1079 18.353 12.1033 19.7843C13.747 20.9635 15.6429 21.5541 17.5588 22.0872C19.3618 22.585 21.2201 22.897 22.9434 23.6691C23.8682 24.0828 24.8858 24.554 25.0694 25.596C25.2752 26.7419 25.8968 26.7883 26.7596 26.7175C27.0804 26.6755 27.4122 26.7087 27.744 26.7087Z" fill="white"/>
<path d="M271.186 34.9181C269.529 34.9181 267.868 34.8805 266.213 34.9359C265.854 34.9726 265.491 34.9094 265.166 34.7533C264.84 34.5971 264.564 34.3541 264.368 34.0509C261.592 30.3365 258.747 26.6709 255.961 22.9676C255.453 22.3039 255.116 22.1069 254.481 22.8547C253.596 23.8906 252.645 24.869 251.634 25.7838C250.997 26.3656 250.811 26.9961 250.829 27.8213C250.875 29.8455 250.802 31.8719 250.864 33.8939C250.889 34.7456 250.597 34.9846 249.789 34.9293C248.87 34.8596 247.947 34.8596 247.028 34.9293C246.035 35.0155 245.725 34.708 245.73 33.6682C245.776 25.6067 245.756 17.5453 245.756 9.48377C245.756 8.71169 245.794 7.93519 245.745 7.16532C245.701 6.4773 245.984 6.25829 246.63 6.28041C247.661 6.3136 248.696 6.33129 249.727 6.28041C250.57 6.23395 250.871 6.48615 250.86 7.38655C250.811 11.3244 250.84 15.2645 250.84 19.2023V20.565L256.557 14.5653C259.018 11.9799 261.479 9.3923 263.939 6.80248C264.142 6.58125 264.333 6.32681 264.653 6.32459C266.556 6.31353 268.459 6.32459 270.666 6.32459C269.478 7.56346 268.507 8.59224 267.521 9.60767C264.826 12.3804 262.126 15.1472 259.421 17.9081C258.99 18.3506 258.758 18.6403 259.24 19.2642C263.052 24.1798 266.821 29.1309 270.609 34.0687C270.753 34.2567 270.85 34.5509 271.188 34.4845L271.186 34.9181Z" fill="white"/>
<path d="M174.523 20.8042C174.523 12.3599 181.019 6.00854 189.655 6.00854C198.197 6.00854 204.639 12.2626 204.723 20.6338C204.807 29.005 198.173 35.4891 189.492 35.4847C180.952 35.4803 174.523 29.1754 174.523 20.8042ZM199.327 20.8042C199.327 15.0943 195.064 10.6543 189.578 10.6499C184.092 10.6455 179.87 14.9925 179.87 20.6803C179.87 26.4189 184.089 30.8014 189.62 30.8147C195.151 30.8279 199.327 26.5207 199.327 20.8064V20.8042Z" fill="white"/>
<path d="M84.2387 20.7331C84.2387 16.3882 84.2608 12.0433 84.221 7.69841C84.221 6.7759 84.4068 6.41972 85.4289 6.42636C91.8046 6.47208 98.1803 6.47208 104.556 6.42636C105.505 6.42636 105.804 6.74486 105.704 7.63198C105.583 8.71599 106.173 10.1053 105.437 10.811C104.755 11.4637 103.395 11.0013 102.339 11.008C98.4325 11.0301 94.5235 11.0543 90.6144 10.9924C89.5724 10.9769 89.3003 11.311 89.3468 12.2999C89.422 13.9547 89.4198 15.6183 89.3468 17.2686C89.3069 18.1801 89.6498 18.3747 90.4817 18.357C94.4991 18.3194 98.5166 18.3571 102.534 18.3217C103.45 18.3217 103.917 18.4743 103.797 19.5141C103.678 20.5538 104.224 21.9475 103.589 22.6112C102.895 23.3568 101.494 22.8546 100.406 22.8679C97.2003 22.9033 93.9903 22.879 90.787 22.8812C89.3711 22.8812 89.3711 22.8812 89.3689 24.3457C89.3689 25.9297 89.433 27.5158 89.3468 29.0954C89.287 30.1706 89.5459 30.5378 90.7162 30.5179C95.3619 30.4427 100.008 30.5179 104.653 30.4626C105.64 30.4516 105.981 30.7369 105.881 31.6992C105.817 32.4353 105.817 33.1755 105.881 33.9115C105.945 34.7654 105.647 35.0641 104.762 35.0552C101.078 35.0132 97.3906 35.0375 93.7005 35.0375C90.8998 35.0375 88.0991 35.0132 85.2939 35.0508C84.4798 35.0508 84.2165 34.8097 84.2232 33.9801C84.2586 29.5688 84.2387 25.151 84.2387 20.7331Z" fill="white"/>
<path d="M63.1292 6.00392C66.5051 5.97731 69.8041 7.01198 72.5601 8.96174C73.195 9.4042 73.4141 9.76473 72.8477 10.4395C72.2624 11.1497 71.7287 11.9008 71.2505 12.6872C70.8434 13.3508 70.4872 13.3664 69.8545 12.9305C67.4586 11.2868 64.857 10.2625 61.8749 10.601C60.7842 10.7248 59.7953 11.1031 59.041 11.9283C57.6826 13.4304 58.0853 15.6583 59.9259 16.7091C61.3793 17.5365 63.0031 17.9125 64.6115 18.3152C66.2272 18.6787 67.8083 19.182 69.3369 19.8195C72.7592 21.3393 74.3499 23.6799 74.2393 27.0646C74.1198 30.6994 72.2482 33.4803 68.8435 34.6373C63.8527 36.3363 59.1095 35.4956 54.6408 32.8564C51.7759 31.1596 51.8024 31.1154 53.882 28.6288L54.0213 28.4584C55.0235 27.2572 55.0257 27.255 56.2778 28.1996C58.8706 30.1575 61.751 31.1972 65.034 30.9162C67.3281 30.7171 68.8391 29.5557 69.0847 27.8323C69.2727 26.505 68.8634 25.4409 67.6909 24.7174C66.4189 23.9299 64.9964 23.5494 63.5673 23.191C61.5241 22.7182 59.5198 22.0902 57.572 21.3127C51.5989 18.8195 52.0679 10.7337 56.5256 7.81791C58.3286 6.65426 60.4657 6.00834 63.1292 6.00392Z" fill="white"/>
<path d="M128.657 6.00816C132.639 5.97719 136.178 7.16518 139.209 9.82875C139.727 10.2867 139.844 10.6052 139.317 11.1406C138.568 11.9012 137.861 12.7025 137.2 13.5409C136.758 14.1183 136.422 14.094 135.888 13.6272C134.256 12.2047 132.413 11.1782 130.234 10.8021C123.911 9.7159 118.586 14.7333 119.111 21.4918C119.484 26.2968 122.312 29.6949 126.486 30.593C130.061 31.3629 133.203 30.3253 135.871 27.894C136.561 27.2635 136.992 27.1597 137.618 27.9362C138.215 28.6378 138.865 29.2916 139.563 29.8918C140.005 30.2944 139.921 30.5555 139.55 30.9515C135.391 35.4556 127.758 36.8405 121.987 34.1128C119.172 32.7721 116.86 30.5646 115.392 27.8143C113.923 25.064 113.374 21.9155 113.826 18.8304C114.98 11.0477 120.807 6.00816 128.657 6.00816Z" fill="white"/>
<path d="M211.123 20.8527C211.123 11.7183 218.744 5.02829 227.793 6.05257C231.122 6.43087 234.06 7.57911 236.595 9.77367C237.142 10.2449 237.305 10.5922 236.721 11.1741C235.969 11.932 235.263 12.7349 234.609 13.5787C234.182 14.1251 233.89 14.1119 233.381 13.665C231.334 11.8576 228.987 10.7072 226.202 10.6563C221.22 10.5634 217.2 14.196 216.581 19.3373C215.935 24.7109 219.072 29.5623 223.976 30.6043C227.516 31.3565 230.613 30.3234 233.268 27.9364C234.027 27.2528 234.522 27.1023 235.164 28.027C235.538 28.5624 236.082 28.9783 236.551 29.4496C237.544 30.4451 237.558 30.4606 236.485 31.4406C231.98 35.5377 226.711 36.4734 221.052 34.7014C215.532 32.9736 212.406 28.9495 211.34 23.3038C211.293 23.0507 211.261 22.7952 211.243 22.5384C211.196 21.9499 211.159 21.366 211.123 20.8527Z" fill="white"/>
<path d="M149.751 20.6028C149.751 16.1782 149.773 11.767 149.733 7.35132C149.733 6.52393 149.967 6.24517 150.788 6.28278C151.781 6.34473 152.777 6.34473 153.77 6.28278C154.679 6.22083 154.859 6.60797 154.854 7.43536C154.825 14.5389 154.834 21.6448 154.841 28.7506C154.841 30.4828 154.64 30.2749 156.372 30.2793C160.538 30.2793 164.701 30.3036 168.865 30.266C169.685 30.266 170.013 30.4872 169.924 31.3212C169.8 32.4783 170.424 33.9759 169.661 34.7148C168.955 35.3962 167.482 34.9118 166.343 34.9162C161.328 34.9339 156.314 34.9339 151.299 34.9162C149.516 34.9162 149.751 35.1374 149.751 33.3034C149.744 29.0714 149.751 24.8371 149.751 20.6028Z" fill="white"/>
</svg>
