<svg width="139" height="40" viewBox="0 0 139 40" fill="none" xmlns="http://www.w3.org/2000/svg">
<path d="M67.5153 15.546C70.4337 12.4765 75.3629 12.3166 78.3598 13.9483C79.2127 14.4132 80.0078 14.9655 80.6075 15.7251C80.988 16.2049 81.1598 16.0893 81.5418 15.7384C84.6631 12.8807 88.3174 12.1759 92.2442 13.5367C95.3817 14.625 96.7573 17.2384 97.2578 20.3804C97.373 21.2103 97.4225 22.048 97.4058 22.8857C97.4058 28.1628 97.3925 33.44 97.4162 38.7171C97.4162 39.2754 97.2785 39.4101 96.7292 39.3982C94.8309 39.3612 92.9312 39.3583 91.033 39.3982C90.3844 39.4116 90.1668 39.2768 90.1727 38.5691C90.2082 33.7613 90.1919 28.9535 90.1905 24.1443C90.207 23.5527 90.1573 22.9613 90.0424 22.3808C89.6397 20.604 88.5617 19.529 87.0337 19.3868C85.091 19.2047 83.48 20.1064 82.7767 21.7722C82.5766 22.2488 82.4758 22.7612 82.4806 23.2781C82.4909 28.4072 82.4806 33.5362 82.4983 38.6653C82.4983 39.2235 82.3873 39.4056 81.7876 39.3982C79.8153 39.3568 77.8401 39.3642 75.8649 39.3982C75.3407 39.4071 75.2149 39.2502 75.2163 38.7408C75.2371 33.9582 75.2297 29.1742 75.2252 24.3901C75.2478 23.7246 75.2007 23.0586 75.0846 22.403C74.7736 20.9104 74.0377 19.7555 72.4726 19.4416C70.8439 19.1218 69.3825 19.5438 68.3267 20.9223C67.7876 21.6023 67.4994 22.4474 67.5109 23.3151C67.5301 28.4442 67.5109 33.5732 67.5331 38.7023C67.5331 39.2398 67.428 39.4086 66.8564 39.3968C64.8841 39.3568 62.9104 39.3657 60.9337 39.3968C60.4569 39.3968 60.3088 39.2857 60.3088 38.7897C60.3256 30.5541 60.3256 22.3181 60.3088 14.0816C60.3088 13.5914 60.4569 13.4656 60.9337 13.473C62.9311 13.4997 64.9315 13.5026 66.926 13.473C67.4339 13.4641 67.5612 13.6314 67.5183 14.0964C67.4857 14.5317 67.5153 14.9759 67.5153 15.546Z" fill="white"/>
<path d="M18.9327 14.6205C19.0112 13.4937 19.0112 13.4937 20.1424 13.4937C21.9192 13.4937 23.696 13.507 25.4729 13.4848C25.9245 13.4848 26.114 13.5574 26.114 14.0771C26.0962 22.3363 26.0962 30.5956 26.114 38.8548C26.114 39.416 25.9023 39.4886 25.4255 39.4826C23.5761 39.459 21.7238 39.4308 19.8774 39.493C19.1148 39.5197 18.8409 39.3005 18.9712 38.5617C18.9757 38.4418 18.9648 38.3218 18.9386 38.2048C11.7395 41.56 5.16828 38.2048 2.40533 34.2158C-0.970627 29.3444 -0.787022 22.5732 2.91912 17.9639C6.224 13.8491 12.5776 11.5096 18.9327 14.6205ZM12.9907 20.2338C9.56442 20.2086 6.86366 22.899 6.85033 26.3579C6.837 29.8375 9.48446 32.5456 12.9137 32.5605C16.2689 32.5753 18.9238 29.916 18.9564 26.506C18.9904 22.9819 16.3992 20.259 12.9907 20.2338Z" fill="white"/>
<path d="M47.6223 37.0379C46.3088 38.3884 44.6305 39.3274 42.7924 39.7402C39.0907 40.5901 35.2409 39.3108 33.2627 36.5404C32.14 34.9553 31.5433 33.0576 31.557 31.1152C31.5051 25.3953 31.5362 19.674 31.5214 13.9541C31.5214 13.5543 31.6443 13.4625 32.0249 13.4655C34.0712 13.4833 36.1189 13.4995 38.1652 13.4581C38.7916 13.4448 38.7457 13.7675 38.7442 14.1851C38.7383 19.022 38.7383 23.855 38.7442 28.6839C38.7286 29.2013 38.7624 29.7189 38.8449 30.2298C39.3083 32.5781 40.9682 33.7479 43.4187 33.4873C45.8337 33.237 47.5424 31.4913 47.5424 29.2718C47.5424 24.2375 47.5528 19.212 47.5291 14.1806C47.5291 13.5987 47.6771 13.4403 48.2576 13.4536C50.2047 13.4907 52.1547 13.4862 54.1033 13.4536C54.6245 13.4448 54.814 13.5351 54.8125 14.1214C54.7908 22.3333 54.7908 30.5447 54.8125 38.7555C54.8125 39.216 54.7267 39.3878 54.2203 39.3789C52.2228 39.3478 50.2224 39.3508 48.2265 39.3789C47.7408 39.3789 47.5809 39.253 47.6194 38.7674C47.6549 38.2699 47.6223 37.7531 47.6223 37.0379Z" fill="white"/>
<path d="M109.87 15.8228C113.292 12.3817 118.279 12.3358 121.42 13.9097C124.006 15.2083 125.315 17.4189 125.83 20.1819C125.964 20.9593 126.025 21.7475 126.013 22.5362C126.013 27.911 126.002 33.2859 126.023 38.6608C126.023 39.216 125.916 39.41 125.314 39.4011C123.367 39.3582 121.417 39.3656 119.469 39.4011C118.948 39.41 118.821 39.2664 118.822 38.7511C118.843 33.8945 118.836 29.0363 118.834 24.1797C118.834 23.312 118.75 22.4562 118.39 21.6552C117.524 19.7614 115.369 18.9677 113.111 19.6192C111.474 20.0931 109.805 21.864 109.854 24.0257C109.955 28.9046 109.876 33.7879 109.898 38.6697C109.898 39.2279 109.787 39.4174 109.188 39.41C107.215 39.3671 105.242 39.3789 103.265 39.41C102.801 39.41 102.695 39.2826 102.696 38.834C102.71 30.5748 102.71 22.3151 102.696 14.0548C102.696 13.5884 102.835 13.4818 103.281 13.4877C105.304 13.5114 107.326 13.5084 109.352 13.4877C109.764 13.4877 109.919 13.5929 109.892 14.0193C109.844 14.5612 109.87 15.1239 109.87 15.8228Z" fill="white"/>
<path d="M131.3 26.3771C131.3 22.36 131.322 18.3414 131.279 14.3229C131.271 13.5825 131.49 13.4463 132.168 13.4656C134.016 13.5159 135.87 13.507 137.714 13.4656C138.307 13.4522 138.505 13.5692 138.504 14.2059C138.479 22.3664 138.479 30.526 138.504 38.6845C138.504 39.2161 138.406 39.4026 137.824 39.3908C135.902 39.3483 133.977 39.3483 132.049 39.3908C131.457 39.4026 131.268 39.2857 131.274 38.6504C131.316 34.5593 131.3 30.4667 131.3 26.3771Z" fill="white"/>
<path d="M131.014 3.90777C131.029 1.70008 132.815 -0.0248996 135.06 0.000271997C136.114 0.0175509 137.118 0.452979 137.852 1.21077C138.585 1.96857 138.987 2.98662 138.97 4.04102C138.953 5.09542 138.517 6.09977 137.76 6.83313C137.002 7.56649 135.984 7.9688 134.929 7.95152C132.689 7.91154 131 6.16729 131.014 3.90777Z" fill="white"/>
</svg>
