<svg width="255" height="44" viewBox="0 0 255 44" fill="none" xmlns="http://www.w3.org/2000/svg">
<path d="M115.297 18.7947C115.288 23.6442 115.278 28.493 115.269 33.3413C115.269 34.7596 115.258 34.7704 113.816 34.7704C112.775 34.7704 111.733 34.7561 110.692 34.7704C110.026 34.7811 109.725 34.5185 109.725 33.82C109.737 26.0242 109.737 18.2296 109.725 10.4362C109.725 9.70202 110.011 9.43227 110.733 9.45013C112.101 9.48229 113.471 9.48943 114.842 9.45013C115.556 9.42691 115.985 9.69129 116.353 10.2951C118.152 13.2391 119.985 16.1634 121.81 19.0913C122.425 20.0756 122.437 20.0738 123.052 19.0913C124.86 16.1866 126.685 13.2927 128.454 10.3648C128.863 9.69132 129.327 9.41794 130.106 9.45188C131.357 9.50547 132.607 9.45194 133.858 9.46801C135.042 9.46801 135.071 9.49832 135.072 10.6577C135.072 15.0891 135.072 19.5218 135.072 23.9556C135.072 27.1979 135.049 30.442 135.089 33.6843C135.089 34.5061 134.812 34.8115 134.017 34.7865C132.916 34.7508 131.814 34.7418 130.715 34.7865C129.837 34.8258 129.519 34.5185 129.528 33.6075C129.565 28.9968 129.544 24.3861 129.544 19.7737V18.6751C129.008 18.918 128.886 19.3056 128.681 19.6147C126.825 22.4169 124.975 25.2233 123.129 28.0339C122.371 29.1808 122.355 29.1701 121.616 28.0554C119.56 24.9589 117.499 21.8625 115.431 18.7661L115.363 18.7322L115.297 18.7947Z" fill="#F3F3F3"/>
<path d="M140.401 22.0849C140.401 18.3072 140.401 14.529 140.401 10.7502C140.401 9.49972 140.432 9.47115 141.625 9.46936C145.226 9.46936 148.826 9.46936 152.425 9.46936C154.129 9.44762 155.812 9.83994 157.331 10.6126C161.345 12.692 161.44 18.596 158.158 20.9166C157.349 21.4864 157.365 21.5453 158.253 21.9705C160.979 23.2746 162.102 25.463 161.865 28.4212C161.638 31.2366 160.055 32.9782 157.495 33.95C155.912 34.5503 154.262 34.7325 152.586 34.736C148.956 34.7444 145.324 34.7444 141.689 34.736C140.439 34.736 140.403 34.6789 140.392 33.4141C140.392 33.3534 140.392 33.2944 140.392 33.2355C140.397 29.5162 140.4 25.7994 140.401 22.0849ZM149.808 29.8468C150.702 29.8468 151.595 29.8468 152.488 29.8468C153.233 29.8579 153.974 29.7301 154.673 29.4698C155.784 29.0285 156.329 28.2319 156.322 27.0743C156.322 25.9578 155.786 25.1825 154.714 24.7377C154.107 24.4873 153.457 24.3551 152.801 24.3482C150.748 24.3214 148.692 24.3358 146.646 24.3161C146.091 24.3161 145.816 24.5287 145.819 25.0985C145.819 26.4062 145.83 27.7138 145.819 29.0286C145.819 29.6395 146.091 29.8753 146.689 29.8628C147.727 29.8271 148.767 29.8432 149.808 29.8432V29.8468ZM149.072 19.6643V19.5839C150.08 19.5839 151.087 19.6 152.095 19.575C152.421 19.5501 152.741 19.4797 153.047 19.3659C154.424 18.9229 155.053 17.9708 154.885 16.6113C154.748 15.4966 153.933 14.7178 152.563 14.4999C150.559 14.1801 148.535 14.3837 146.52 14.3552C146.046 14.3552 145.819 14.6249 145.819 15.0876C145.819 16.3631 145.819 17.6385 145.819 18.914C145.819 19.4231 146.05 19.6751 146.577 19.6679C147.409 19.6518 148.242 19.6625 149.072 19.6625V19.6643Z" fill="#F3F3F3"/>
<path d="M237.952 19.1663V22.9927C237.952 26.5333 237.926 30.0739 237.97 33.6146C237.983 34.5328 237.647 34.8239 236.777 34.7882C235.648 34.74 234.515 34.7614 233.383 34.7775C232.704 34.7882 232.432 34.497 232.434 33.8092C232.446 26.0146 232.446 18.22 232.434 10.4254C232.434 9.67515 232.754 9.43579 233.46 9.45723C234.499 9.48938 235.544 9.50903 236.584 9.45723C237.363 9.41257 237.834 9.73415 238.292 10.3344C241.679 14.8218 245.082 19.2979 248.501 23.7626C248.712 24.0395 248.94 24.2986 249.216 24.6558C249.442 24.2182 249.373 23.8627 249.373 23.525C249.373 19.2377 249.373 14.9533 249.373 10.6719C249.373 9.509 249.401 9.48583 250.584 9.47869C251.656 9.47869 252.728 9.51797 253.799 9.46438C254.655 9.42151 254.928 9.74307 254.925 10.5952C254.894 15.9794 254.911 21.3653 254.911 26.7494C254.911 29.0717 254.878 31.394 254.927 33.7164C254.943 34.5595 254.61 34.7882 253.83 34.8061C250.232 34.8775 250.234 34.89 248.058 32.03C244.94 27.9356 241.82 23.8418 238.699 19.7486C238.52 19.5217 238.333 19.3091 238.149 19.0894L237.952 19.1663Z" fill="#F3F3F3"/>
<path d="M166.479 22.0388C166.479 18.2624 166.479 14.4854 166.479 10.7077C166.479 9.50194 166.517 9.46799 167.744 9.45728C171.255 9.45728 174.768 9.45728 178.283 9.45728C180.218 9.45728 182.085 9.79131 183.775 10.772C188.859 13.7142 188.916 21.7851 183.884 24.8845C183.612 25.0666 183.324 25.2244 183.025 25.3561C182.374 25.6116 182.335 25.9635 182.717 26.5101C183.945 28.2662 185.143 30.04 186.353 31.8068C186.872 32.5678 187.383 33.336 187.91 34.0934C188.21 34.5221 188.125 34.7632 187.591 34.7615C185.804 34.7615 184.018 34.7311 182.231 34.7168C181.737 34.7168 181.517 34.3595 181.279 34.0022C179.825 31.8264 178.351 29.6631 176.924 27.4676C176.54 26.8781 176.1 26.6012 175.391 26.6423C174.591 26.6887 173.784 26.6744 172.983 26.6423C172.301 26.6191 172.028 26.8942 172.036 27.5891C172.065 29.5809 172.015 31.5745 172.058 33.5664C172.076 34.397 171.819 34.7686 170.947 34.7328C169.818 34.6846 168.685 34.6935 167.553 34.7328C166.743 34.7579 166.461 34.4292 166.467 33.6253C166.495 29.7667 166.481 25.9046 166.479 22.0388ZM172.047 18.0319C172.047 18.9823 172.056 19.9344 172.047 20.8902C172.047 21.3921 172.226 21.6886 172.762 21.6886C174.754 21.6886 176.753 21.8351 178.735 21.6065C180.613 21.3885 181.819 20.0416 181.86 18.2892C181.913 16.0437 180.634 14.7021 178.121 14.5502C176.372 14.4448 174.612 14.5235 172.856 14.4914C172.224 14.4806 172.022 14.77 172.036 15.3577C172.063 16.2455 172.047 17.1387 172.047 18.0319Z" fill="#F3F3F3"/>
<path d="M21.7761 43.9543H20.347C18.9179 43.9543 18.9072 43.9544 19.0019 42.4931C19.2424 38.4197 20.4792 34.4676 22.6038 30.9838C24.7283 27.5 27.6756 24.5911 31.1869 22.5124C32.08 21.9764 32.08 21.9336 31.1869 21.3816C23.8936 16.8489 19.8391 10.3077 19.0233 1.75806C18.8572 0.00204027 18.8679 0.000281846 20.5971 0.000281846C21.669 0.000281846 22.7408 0.014573 23.8126 0.000281846C24.3914 -0.0086501 24.6326 0.193226 24.6951 0.818462C25.5115 8.84649 29.4898 14.604 37.0105 17.7623C38.9755 18.5876 41.0584 18.936 43.1682 19.1235C43.7166 19.1718 43.9828 19.3325 43.9756 19.9131C43.956 21.2815 43.9524 22.6499 43.9756 24.0218C43.9881 24.6435 43.7184 24.8221 43.1253 24.8614C33.4788 25.517 26.4404 31.9409 24.9041 41.4624C24.8577 41.7536 24.7916 42.0447 24.7255 42.3323C24.6111 42.8182 24.9041 43.4453 24.4933 43.7811C24.0163 44.1705 23.3464 43.9115 22.7605 43.9597C22.4318 43.9723 22.1031 43.9543 21.7761 43.9543Z" fill="#F3F3F3"/>
<path d="M103.007 34.8454C102.233 34.8454 101.458 34.815 100.684 34.8454C100.052 34.8793 99.7109 34.6452 99.5019 34.0361C98.966 32.4891 98.3514 30.9724 97.828 29.4236C97.5851 28.7091 97.2207 28.5429 96.4954 28.6984C94.5464 29.1164 92.5868 29.4808 90.6235 29.8256C88.6317 30.1739 87.2937 31.1993 86.6327 33.1786C85.9825 35.1258 86.2755 34.8096 84.2765 34.8364C83.1457 34.8507 82.0149 34.8364 80.8824 34.8364C79.6122 34.8364 79.589 34.8024 80.0785 33.5859C82.3234 28.0136 84.5707 22.4418 86.8203 16.8707C87.7135 14.6645 88.6228 12.4672 89.4802 10.2467C89.7393 9.57327 90.0823 9.25885 90.8451 9.28743C92.3599 9.34281 93.8819 9.32142 95.3968 9.29641C95.9756 9.2857 96.3257 9.46074 96.5508 10.0306C99.7162 17.9896 102.894 25.9438 106.085 33.8932C106.378 34.622 106.162 34.8704 105.413 34.8418C104.615 34.8221 103.809 34.8454 103.007 34.8454ZM93.1334 16.7028L92.8619 16.7277C91.8508 19.4145 90.8385 22.1012 89.825 24.7879C89.5481 25.5311 90.084 25.4328 90.4913 25.3578C91.9794 25.088 93.4585 24.7629 94.9573 24.5164C95.7469 24.386 95.8505 24.0251 95.5933 23.3445C95.102 22.0726 94.6518 20.7847 94.1784 19.5056C93.8337 18.5695 93.4817 17.6371 93.1334 16.7028Z" fill="#F3F3F3"/>
<path d="M216.169 9.31229C217.009 9.41232 218.211 8.92462 219.027 9.52128C219.804 10.0858 219.906 11.2969 220.278 12.2312C223.136 19.3541 225.983 26.4807 228.819 33.6108C229.297 34.8112 229.276 34.8434 227.986 34.8452C226.5 34.8452 225.01 34.8201 223.52 34.8576C222.875 34.8719 222.554 34.62 222.348 34.0252C221.812 32.4799 221.205 30.9597 220.673 29.4127C220.448 28.7536 220.121 28.5428 219.422 28.6982C217.384 29.1287 215.333 29.4931 213.288 29.8825C211.446 30.2398 210.194 31.2134 209.551 33.0462C208.8 35.1899 209.229 34.8183 206.941 34.8505C205.81 34.8666 204.679 34.8612 203.546 34.8505C202.555 34.8398 202.475 34.7379 202.853 33.8162C205.286 27.7746 207.723 21.7342 210.163 15.695C210.878 13.9087 211.646 12.1223 212.307 10.3091C212.593 9.5356 213.021 9.23725 213.827 9.30513C214.547 9.3623 215.265 9.31229 216.169 9.31229ZM216.017 16.7205L215.733 16.6954C214.694 19.4626 213.648 22.2332 212.623 24.9986C212.478 25.3862 212.759 25.4648 213.071 25.4058C214.764 25.0879 216.454 24.7651 218.143 24.4376C218.524 24.3626 218.718 24.1286 218.572 23.7231C217.724 21.3889 216.872 19.0564 216.017 16.7258V16.7205Z" fill="#F3F3F3"/>
<path d="M53.9758 22.1551C53.9758 14.2592 60.2282 8.48737 68.133 9.02686C71.1984 9.23587 73.9548 10.1201 76.3253 12.1316C76.9756 12.6836 77.131 13.1124 76.4629 13.7787C75.6925 14.5649 74.9684 15.3952 74.2942 16.2653C73.8101 16.8763 73.4314 16.9798 72.7972 16.4153C71.6222 15.3466 70.173 14.626 68.6117 14.3342C64.1672 13.5393 60.2711 16.56 59.8816 21.1046C59.7548 22.5766 59.8816 24.02 60.4622 25.3919C62.195 29.5203 66.6699 31.1871 70.7089 29.2149C71.5951 28.787 72.4141 28.2321 73.1402 27.5678C73.6297 27.1158 73.978 27.1855 74.405 27.6482C75.1517 28.4575 75.918 29.2559 76.7273 29.9991C77.2632 30.4903 77.1792 30.8316 76.7058 31.3139C73.6904 34.3829 69.9676 35.494 65.7946 35.1296C58.833 34.5276 53.9794 29.1363 53.9758 22.1551Z" fill="#F3F3F3"/>
<path d="M0.00719697 21.9601C0.00719697 21.485 0.00719697 21.008 0.00719697 20.531C0.00719697 19.1198 0.00720262 19.1019 1.52027 18.9751C3.95792 18.7691 6.33183 18.0889 8.50863 16.9726C11.4387 15.4774 13.9364 13.2558 15.7632 10.5201C15.9204 10.2879 15.999 9.87529 16.3455 9.92531C16.6153 9.96282 16.6367 10.3415 16.7349 10.5826C17.2905 11.9653 17.8872 13.3337 18.7 14.5788C19.2073 15.3541 19.0715 15.8668 18.4677 16.5099C16.7177 18.421 14.703 20.0716 12.4851 21.4117C11.6205 21.9227 11.6205 21.9566 12.4726 22.4657C14.8002 23.8572 16.8974 25.6019 18.6893 27.6373C19.1519 28.159 19.1412 28.5716 18.7911 29.1343C18.0019 30.4302 17.3259 31.7917 16.7707 33.2037C16.6635 33.4681 16.6474 33.8772 16.3276 33.9183C16.0079 33.9594 15.8971 33.561 15.7381 33.327C12.8799 29.1844 9.02667 26.4851 4.12661 25.3096C3.08719 25.0492 2.02314 24.8995 0.952204 24.863C0.189416 24.8452 -0.0320962 24.5165 0.00363161 23.8252C0.0340002 23.2107 0.00898336 22.5854 0.00719697 21.9601Z" fill="#F3F3F3"/>
<path d="M198.63 22.1692C198.63 25.9468 198.63 29.7244 198.63 33.502C198.63 34.6471 198.55 34.7256 197.423 34.7364C196.351 34.7453 195.279 34.6953 194.207 34.7507C193.314 34.7971 192.975 34.4702 193 33.5735C193.044 31.9389 193.01 30.3025 193.01 28.6662C193.01 22.7485 193.01 16.8296 193.01 10.9095C193.01 9.48041 193.028 9.46793 194.452 9.46436C195.374 9.46436 196.296 9.46436 197.217 9.46436C198.621 9.46436 198.627 9.46434 198.627 10.8381C198.632 14.6145 198.633 18.3916 198.63 22.1692Z" fill="#F3F3F3"/>
<path d="M115.297 18.7945L115.351 18.7427L115.419 18.7766C115.379 18.787 115.338 18.7931 115.297 18.7945Z" fill="#F3F3F3"/>
</svg>
